<svg width="21" height="21" viewBox="0 0 21 21" fill="none" xmlns="http://www.w3.org/2000/svg">
<path d="M3.24602 13.4607C3.57151 13.786 4.09911 13.786 4.42449 13.4605C4.74987 13.135 4.74979 12.6074 4.4243 12.282L2.51214 10.3705L5.4027 7.47994C7.14748 5.73516 9.62439 5.02425 11.9947 5.52369C12.4451 5.61857 12.887 5.33041 12.9819 4.88008C13.0768 4.42974 12.7886 3.98776 12.3383 3.89288C9.4224 3.27853 6.37153 4.15413 4.22419 6.30147L0.744308 9.78135C0.418851 10.1068 0.41889 10.6345 0.744425 10.9599L3.24602 13.4607Z" fill="#B8B8B8"/>
<path d="M20.2563 9.78045L17.7547 7.27972C17.4292 6.95434 16.9016 6.95442 16.5762 7.27991C16.2509 7.60541 16.2509 8.13301 16.5764 8.45839L18.4886 10.3699L15.598 13.2604C13.8533 15.0053 11.3763 15.7161 9.006 15.2167C8.55566 15.1218 8.11368 15.41 8.0188 15.8603C7.92392 16.3106 8.21208 16.7526 8.66241 16.8475C11.5783 17.4619 14.6292 16.5863 16.7765 14.4389L20.2564 10.959C20.5819 10.6335 20.5818 10.1058 20.2563 9.78045Z" fill="#B8B8B8"/>
<path d="M6.33374 10.3702C6.33374 10.8304 6.70681 11.2035 7.16703 11.2035C7.62725 11.2035 8.00032 10.8304 8.00032 10.3702C8.00032 8.98965 9.1197 7.87028 10.5002 7.87028C10.9605 7.87028 11.3335 7.4972 11.3335 7.03699C11.3335 6.57677 10.9605 6.2037 10.5002 6.2037C8.19926 6.20366 6.33374 8.06918 6.33374 10.3702Z" fill="#B8B8B8"/>
<path d="M13.0002 10.3702C13.0002 11.7507 11.8808 12.8701 10.5003 12.8701C10.0401 12.8701 9.66699 13.2432 9.66699 13.7034C9.66699 14.1636 10.0401 14.5367 10.5003 14.5367C12.8013 14.5367 14.6668 12.6712 14.6668 10.3702C14.6668 9.90993 14.2937 9.53686 13.8335 9.53686C13.3733 9.53686 13.0002 9.90997 13.0002 10.3702Z" fill="#B8B8B8"/>
<path d="M20.2552 0.613998C19.9298 0.288579 19.4022 0.288579 19.0767 0.613998L0.744064 18.9467C0.418645 19.2721 0.418645 19.7997 0.744064 20.1252C1.06948 20.4506 1.59712 20.4506 1.92254 20.1252L20.2552 1.79247C20.5807 1.46705 20.5807 0.939416 20.2552 0.613998Z" fill="#B8B8B8"/>
</svg>
